Coordinates
version=1
nRows=13
nColumns=63
inDegrees=yes

Units are S.I. units (second, meters, Newtons, ...)
If the header above contains a line with 'inDegrees', this indicates whether rotational values are in degrees (yes) or radians (no).

endheader
time	pelvis_tilt	pelvis_list	pelvis_rotation	pelvis_tx	pelvis_ty	pelvis_tz	hip_flexion_r	hip_adduction_r	hip_rotation_r	knee_angle_r	knee_angle_r_beta	ankle_angle_r	subtalar_angle_r	mtp_angle_r	hip_flexion_l	hip_adduction_l	hip_rotation_l	knee_angle_l	knee_angle_l_beta	ankle_angle_l	subtalar_angle_l	mtp_angle_l	L5_S1_Flex_Ext	L5_S1_Lat_Bending	L5_S1_axial_rotation	L4_L5_Flex_Ext	L4_L5_Lat_Bending	L4_L5_axial_rotation	L3_L4_Flex_Ext	L3_L4_Lat_Bending	L3_L4_axial_rotation	L2_L3_Flex_Ext	L2_L3_Lat_Bending	L2_L3_axial_rotation	L1_L2_Flex_Ext	L1_L2_Lat_Bending	L1_L2_axial_rotation	L1_T12_Flex_Ext	L1_T12_Lat_Bending	L1_T12_axial_rotation	Abs_r3	Abs_r2	Abs_r1	Abs_t1	Abs_t2	neck_flexion	neck_bending	neck_rotation	arm_flex_r	arm_add_r	arm_rot_r	elbow_flex_r	pro_sup_r	wrist_flex_r	wrist_dev_r	arm_flex_l	arm_add_l	arm_rot_l	elbow_flex_l	pro_sup_l	wrist_flex_l	wrist_dev_l
0.000000	0.709929	-4.052555	96.625359	0.181176	0.477732	1.033339	8.586531	-0.170472	-16.255869	10.812423	0.188712	34.043562	16.930664	0.000000	10.242026	-0.688900	12.791258	12.773790	0.222945	25.113595	-9.053971	0.000000	0.024676	0.216633	-0.000240	0.045826	0.288122	-0.000255	0.040540	0.526721	-0.000255	0.028202	0.526721	-0.000210	0.022914	0.441758	-0.000195	0.014100	0.335564	-0.000180	0.176258	2.450594	-0.001336	0.000000	0.000000	27.169629	4.231524	4.679903	9.266098	-16.914559	57.023946	30.586838	74.917841	-12.470497	-2.175318	11.322034	-13.617118	68.773563	26.275730	76.558687	-6.319720	-2.409510
0.016949	0.679757	-4.041338	96.572144	0.181284	0.477248	1.033326	8.454404	-0.156551	-16.155466	10.687460	0.186531	33.921495	16.757554	0.000000	10.220065	-0.638567	12.936804	13.016189	0.227175	25.027799	-9.077667	0.000000	0.027660	0.214883	0.014857	0.051367	0.285795	0.015786	0.045442	0.522468	0.015786	0.031612	0.522468	0.013000	0.025685	0.438190	0.012071	0.015805	0.332854	0.011143	0.197571	2.430804	0.082631	0.000000	0.000000	27.200837	4.194216	4.662269	9.632245	-16.966892	59.052555	30.203456	71.579916	-11.878587	-2.600560	11.182878	-13.734020	68.574399	26.464607	76.430508	-5.807889	-2.357328
0.033898	0.661933	-4.024228	96.526980	0.181369	0.476863	1.033318	8.357014	-0.139900	-16.053776	10.598346	0.184976	33.872815	16.635041	0.000000	10.183883	-0.606307	13.079262	13.179367	0.230023	25.025296	-9.109364	0.000000	0.028861	0.213309	0.028787	0.053598	0.283701	0.030587	0.047416	0.518639	0.030587	0.032985	0.518639	0.025189	0.026800	0.434979	0.023390	0.016491	0.330415	0.021591	0.206152	2.412993	0.160107	0.000000	0.000000	27.165203	4.172010	4.642406	9.980827	-17.036700	60.884150	29.925098	68.790426	-11.454899	-2.969944	11.080230	-13.828753	68.390264	26.626604	76.178516	-5.446280	-2.324977
0.050847	0.654073	-4.002455	96.489635	0.181433	0.476568	1.033315	8.291782	-0.122188	-15.952558	10.542617	0.184003	33.889588	16.556869	0.000000	10.135914	-0.588709	13.219849	13.270807	0.231619	25.096162	-9.150894	0.000000	0.028486	0.211781	0.041508	0.052902	0.281669	0.044102	0.046800	0.514925	0.044102	0.032557	0.514925	0.036319	0.026452	0.431864	0.033725	0.016277	0.328049	0.031131	0.203475	2.395712	0.230855	0.000000	0.000000	27.071611	4.163112	4.620156	10.312757	-17.121115	62.532521	29.740979	66.501815	-11.182973	-3.289273	11.010223	-13.904029	68.218043	26.764985	75.824431	-5.220907	-2.312616
0.067797	0.653794	-3.977249	96.459879	0.181479	0.476354	1.033316	8.256125	-0.105084	-15.853567	10.517807	0.183570	33.963884	16.516785	0.000000	10.078593	-0.582363	13.359783	13.297992	0.232094	25.230472	-9.204090	0.000000	0.026742	0.210172	0.052975	0.049662	0.279529	0.056286	0.043934	0.511013	0.056286	0.030563	0.511013	0.046354	0.024832	0.428584	0.043043	0.015280	0.325557	0.039732	0.191014	2.377513	0.294634	0.000000	0.000000	26.928941	4.165729	4.595360	10.628950	-17.217264	64.011462	29.640313	64.666528	-11.046352	-3.564351	10.968989	-13.962562	68.054623	26.883016	75.389972	-5.117782	-2.320404
0.084746	0.658711	-3.949841	96.437478	0.181506	0.476211	1.033320	8.247465	-0.090259	-15.758563	10.521451	0.183634	34.087771	16.508533	0.000000	10.014353	-0.583858	13.500280	13.268404	0.231577	25.418301	-9.270782	0.000000	0.023834	0.208355	0.063147	0.044262	0.277112	0.067094	0.039157	0.506594	0.067094	0.027240	0.506594	0.055254	0.022132	0.424877	0.051307	0.013619	0.322741	0.047360	0.170243	2.356950	0.351206	0.000000	0.000000	26.746075	4.178066	4.567859	10.930322	-17.322280	65.334762	29.612315	63.237010	-11.028575	-3.800980	10.952661	-14.007066	67.896890	26.983962	74.896858	-5.122919	-2.348500
0.101695	0.666441	-3.921459	96.422202	0.181517	0.476128	1.033329	8.263220	-0.079381	-15.669300	10.551085	0.184151	34.253318	16.525861	0.000000	9.945629	-0.589783	13.642557	13.189527	0.230201	25.649725	-9.352803	0.000000	0.019969	0.206200	0.071980	0.037084	0.274246	0.076479	0.032807	0.501355	0.076479	0.022822	0.501355	0.062983	0.018543	0.420483	0.058484	0.011410	0.319404	0.053985	0.142636	2.332575	0.400332	0.000000	0.000000	26.531896	4.198329	4.537495	11.217785	-17.433290	66.516214	29.646199	62.165705	-11.113184	-4.004964	10.957373	-14.040253	67.741730	27.071089	74.366808	-5.222332	-2.397065
0.118644	0.674599	-3.893335	96.413818	0.181513	0.476097	1.033341	8.300810	-0.074120	-15.587538	10.604243	0.185079	34.452592	16.562513	0.000000	9.874855	-0.596727	13.787832	13.068843	0.228094	25.914818	-9.451984	0.000000	0.015353	0.203580	0.079432	0.028512	0.270762	0.084396	0.025224	0.494985	0.084396	0.017547	0.494985	0.069503	0.014257	0.415141	0.064538	0.008773	0.315346	0.059574	0.109666	2.302941	0.441775	0.000000	0.000000	26.295285	4.224723	4.504110	11.492256	-17.547426	67.569609	29.731179	61.405058	-11.283720	-4.182108	10.979258	-14.064838	67.586028	27.147663	73.821542	-5.402034	-2.466258
0.135593	0.680803	-3.866698	96.412095	0.181496	0.476107	1.033356	8.357654	-0.076145	-15.515034	10.678460	0.186374	34.677663	16.612234	0.000000	9.804466	-0.601281	13.937321	12.913835	0.225389	26.203658	-9.570156	0.000000	0.010193	0.200368	0.085458	0.018929	0.266489	0.090800	0.016746	0.487174	0.090800	0.011649	0.487174	0.074776	0.009465	0.408590	0.069435	0.005824	0.310369	0.064094	0.072807	2.266599	0.475294	0.000000	0.000000	26.045123	4.255455	4.467544	11.754648	-17.661817	68.508739	29.856470	60.907513	-11.523724	-4.338213	11.014447	-14.083534	67.426672	27.216949	73.282780	-5.648039	-2.556238
0.152542	0.682667	-3.842779	96.416800	0.181467	0.476149	1.033374	8.431172	-0.087125	-15.453544	10.771271	0.187994	34.920599	16.668772	0.000000	9.736895	-0.600032	14.092241	12.731985	0.222215	26.506317	-9.709153	0.000000	0.004695	0.196434	0.090018	0.008718	0.261257	0.095644	0.007713	0.477610	0.095644	0.005365	0.477610	0.078765	0.004359	0.400569	0.073139	0.002682	0.304277	0.067513	0.033533	2.222103	0.500651	0.000000	0.000000	25.790294	4.288731	4.427640	12.005876	-17.773593	69.347395	30.011286	60.625516	-11.816736	-4.479084	11.059074	-14.099054	67.260546	27.282212	72.772240	-5.946361	-2.667165
0.169492	0.677809	-3.822807	96.427703	0.181427	0.476213	1.033396	8.518782	-0.108730	-15.404827	10.880211	0.189896	35.173468	16.725871	0.000000	9.674577	-0.589572	14.253810	12.530775	0.218703	26.812873	-9.870804	0.000000	-0.000936	0.191652	0.093066	-0.001737	0.254897	0.098883	-0.001537	0.465982	0.098883	-0.001069	0.465982	0.081433	-0.000869	0.390817	0.075616	-0.000535	0.296869	0.069800	-0.006682	2.168005	0.517607	0.000000	0.000000	25.539678	4.322755	4.384239	12.246855	-17.879883	70.099369	30.184842	60.511511	-12.146297	-4.610524	11.109272	-14.114112	67.084538	27.346718	72.311642	-6.283012	-2.799198
0.186441	0.662101	-3.811786	96.455086	0.181372	0.476242	1.033448	8.617879	-0.144005	-15.384138	11.011687	0.192190	35.391108	16.747476	0.000000	9.634458	-0.565677	14.382569	12.334923	0.215285	27.185610	-10.002892	0.000000	-0.006764	0.185919	0.092354	-0.012562	0.247272	0.098126	-0.011113	0.452044	0.098126	-0.007731	0.452044	0.080810	-0.006281	0.379126	0.075038	-0.003865	0.287989	0.069265	-0.048316	2.103154	0.513645	0.000000	0.000000	25.348016	4.335174	4.296425	12.510973	-17.972145	70.949323	30.329970	60.320981	-12.528626	-4.812528	11.158443	-14.141986	66.870425	27.445180	72.133973	-6.659038	-2.930573
0.203390	0.624963	-3.815305	96.485023	0.181311	0.476280	1.033506	8.732739	-0.205910	-15.393813	11.153848	0.194671	35.604063	16.765294	0.000000	9.615335	-0.510987	14.536598	12.140598	0.211893	27.482355	-10.180480	0.000000	-0.011907	0.178241	0.090948	-0.022112	0.237060	0.096632	-0.019562	0.433374	0.096632	-0.013608	0.433374	0.079579	-0.011057	0.363468	0.073895	-0.006804	0.276095	0.068211	-0.085049	2.016293	0.505823	0.000000	0.000000	25.180948	4.345394	4.225830	12.745990	-18.040546	71.673578	30.460499	60.258990	-12.911220	-5.012620	11.209962	-14.175933	66.650701	27.540272	72.083521	-7.034858	-3.135793
